<svg width="900" height="1100" viewBox="0 0 900 1100" fill="none" xmlns="http://www.w3.org/2000/svg">
  <defs>
    <radialGradient id="skin" cx="50%" cy="32%" r="58%">
      <stop offset="0" stop-color="#d99a68"/>
      <stop offset="0.52" stop-color="#b66e3f"/>
      <stop offset="1" stop-color="#74401f"/>
    </radialGradient>
    <linearGradient id="jersey" x1="290" y1="760" x2="625" y2="1060" gradientUnits="userSpaceOnUse">
      <stop stop-color="#10243c"/>
      <stop offset="1" stop-color="#050910"/>
    </linearGradient>
    <filter id="softShadow" x="-30%" y="-30%" width="160%" height="160%">
      <feDropShadow dx="0" dy="22" stdDeviation="24" flood-color="#000" flood-opacity="0.34"/>
    </filter>
    <clipPath id="bustClip"><rect x="150" y="70" width="600" height="1030" rx="280"/></clipPath>
  </defs>
  <g filter="url(#softShadow)" clip-path="url(#bustClip)">
    <path d="M188 1115c17-180 112-300 262-300s245 120 262 300H188Z" fill="url(#jersey)"/>
    <path d="M362 790c3 58 30 102 88 102s85-44 88-102H362Z" fill="#9d5b31"/>
    <path d="M292 904c55 75 111 110 158 110s103-35 158-110l34 211H258l34-211Z" fill="#e9edf4"/>
    <path d="M325 905c45 60 87 88 125 88s80-28 125-88l24 210H301l24-210Z" fill="url(#jersey)"/>
    <ellipse cx="246" cy="506" rx="58" ry="90" fill="#a46137"/>
    <ellipse cx="654" cy="506" rx="58" ry="90" fill="#a46137"/>
    <path d="M287 404c0-142 66-240 163-240s163 98 163 240v145c0 131-74 247-163 247S287 680 287 549V404Z" fill="url(#skin)"/>
    <path d="M290 394c26-78 95-126 161-126 70 0 136 50 161 126-16-112-75-192-162-192-86 0-145 80-160 192Z" fill="#0b0d0f"/>
    <path d="M269 385c7-120 71-226 181-226s174 106 181 226c-54-41-87-78-181-78s-127 37-181 78Z" fill="#111316"/>
    <circle cx="311" cy="244" r="58" fill="#0d0f12"/><circle cx="375" cy="198" r="70" fill="#111316"/><circle cx="454" cy="185" r="82" fill="#0e1013"/><circle cx="535" cy="201" r="70" fill="#111316"/><circle cx="592" cy="254" r="55" fill="#0e1013"/>
    <path d="M338 478c32-23 72-20 102 0" stroke="#202020" stroke-width="18" stroke-linecap="round" opacity="0.72"/>
    <path d="M462 478c32-23 72-20 102 0" stroke="#202020" stroke-width="18" stroke-linecap="round" opacity="0.72"/>
    <ellipse cx="390" cy="514" rx="22" ry="15" fill="#171717" opacity=".84"/>
    <ellipse cx="515" cy="514" rx="22" ry="15" fill="#171717" opacity=".84"/>
    <path d="M455 520c-11 44-8 68 18 76" stroke="#7e4322" stroke-width="14" stroke-linecap="round" opacity=".7"/>
    <path d="M375 646c46 35 106 35 151 0" stroke="#31180d" stroke-width="18" stroke-linecap="round"/>
    <path d="M397 660c34 15 71 15 105 0" stroke="#f2d4c0" stroke-width="8" stroke-linecap="round" opacity=".95"/>
    <path d="M322 448c43-39 97-42 139-19" stroke="#0b0d0f" stroke-width="18" stroke-linecap="round"/>
    <path d="M451 428c43-22 96-19 138 20" stroke="#0b0d0f" stroke-width="18" stroke-linecap="round"/>
    <path d="M294 404c50-35 86-78 128-126 54 53 110 70 190 117-12-122-80-213-166-213-94 0-152 86-152 222Z" fill="#0c0e11" opacity=".96"/>
  </g>
</svg>
