<svg class="modern-border-card" width="360" height="504" viewBox="0 0 360 504" xmlns="http://www.w3.org/2000/svg" role="img" aria-label="MARCUS REED CRACKED ICE card">
    <title>MARCUS REED CRACKED ICE</title>
    
  <defs>
    <clipPath id="card_8_crackediceedge-cardClip"><rect x="0" y="0" width="360" height="504" rx="26"/></clipPath>
    <clipPath id="card_8_crackediceedge-portraitSafe"><path d="M30 48 H330 V352 C292 344 244 340 180 340 C116 340 68 344 30 352 Z"/></clipPath>
    <filter id="card_8_crackediceedge-shadow" x="-35%" y="-35%" width="170%" height="175%"><feDropShadow dx="0" dy="20" stdDeviation="18" flood-color="#000" flood-opacity=".72"/></filter>
    <filter id="card_8_crackediceedge-cardGrain" x="0" y="0" width="100%" height="100%"><feTurbulence type="fractalNoise" baseFrequency=".74" numOctaves="3" seed="12" result="noise"/><feColorMatrix in="noise" type="saturate" values="0" result="gray"/><feComponentTransfer><feFuncA type="table" tableValues="0 .05"/></feComponentTransfer></filter>
    <filter id="card_8_crackediceedge-iceBump" x="-5%" y="-5%" width="110%" height="110%"><feTurbulence type="fractalNoise" baseFrequency=".028 .05" numOctaves="4" seed="18" result="noise"/><feSpecularLighting in="noise" result="spec" surfaceScale="6" specularConstant=".95" specularExponent="18" lighting-color="#ffffff"><feDistantLight azimuth="235" elevation="55"/></feSpecularLighting><feComposite in="spec" in2="SourceAlpha" operator="in" result="specOut"/><feMerge><feMergeNode in="SourceGraphic"/><feMergeNode in="specOut"/></feMerge></filter>
    <linearGradient id="card_8_crackediceedge-paper" x1="0" y1="0" x2="1" y2="1"><stop offset="0" stop-color="#f9f7ef"/><stop offset=".52" stop-color="#e8e5dc"/><stop offset="1" stop-color="#f5f7fb"/></linearGradient>
    <radialGradient id="card_8_crackediceedge-field" cx="50%" cy="38%" r="70%"><stop offset="0" stop-color="#ffffff"/><stop offset=".38" stop-color="#eef2f4"/><stop offset="1" stop-color="#cfd6dc"/></radialGradient>
    <linearGradient id="card_8_crackediceedge-darkField" x1="0" y1="0" x2="1" y2="1"><stop offset="0" stop-color="#050505"/><stop offset=".44" stop-color="#0c0c0a"/><stop offset="1" stop-color="#000000"/></linearGradient>
    <radialGradient id="card_8_crackediceedge-blackGlow" cx="50%" cy="36%" r="72%"><stop offset="0" stop-color="#2a2a2a"/><stop offset=".46" stop-color="#070707"/><stop offset="1" stop-color="#000000"/></radialGradient>
    <linearGradient id="card_8_crackediceedge-borderFoil" x1="0" y1="0" x2="1" y2="1"><stop offset="0" stop-color="#8ceeff"/><stop offset=".12" stop-color="#fff"/><stop offset=".22" stop-color="#ffffff"/><stop offset=".37" stop-color="#b7f4ff"/><stop offset=".51" stop-color="#fff"/><stop offset=".69" stop-color="#8ceeff"/><stop offset=".84" stop-color="#ffffff"/><stop offset="1" stop-color="#fff"/></linearGradient>
    <linearGradient id="card_8_crackediceedge-metalSweep" x1="0" y1="0" x2="1" y2="0"><stop offset="0" stop-color="#f7f7f7"/><stop offset=".18" stop-color="#7b8791"/><stop offset=".33" stop-color="#ffffff"/><stop offset=".51" stop-color="#8ceeff"/><stop offset=".66" stop-color="#ffffff"/><stop offset=".82" stop-color="#fff7aa"/><stop offset="1" stop-color="#dce7ef"/></linearGradient>
    <linearGradient id="card_8_crackediceedge-goldSweep" x1="0" y1="0" x2="1" y2="1"><stop offset="0" stop-color="#5e3a07"/><stop offset=".24" stop-color="#ffdf82"/><stop offset=".44" stop-color="#b87b15"/><stop offset=".58" stop-color="#fff3b8"/><stop offset=".76" stop-color="#d5a342"/><stop offset="1" stop-color="#5a3605"/></linearGradient>
    <linearGradient id="card_8_crackediceedge-namePlate" x1="0" y1="0" x2="1" y2="1"><stop offset="0" stop-color="#f9f9f5"/><stop offset="1" stop-color="#dde3e8"/></linearGradient>
    <pattern id="card_8_crackediceedge-mojoTile" width="46" height="46" patternUnits="userSpaceOnUse">
      <rect width="46" height="46" fill="#02070c" opacity=".25"/>
      <path d="M5 5 H19 L23 9 L27 5 H41 V19 L37 23 L41 27 V41 H27 L23 37 L19 41 H5 V27 L9 23 L5 19 Z" fill="none" stroke="#8ceeff" stroke-width="2.2" stroke-opacity=".74"/>
      <path d="M13 13 H33 V33 H13 Z" fill="none" stroke="#b7f4ff" stroke-width="1.45" stroke-opacity=".62"/>
      <path d="M5 23 H15 M31 23 H41 M23 5 V15 M23 31 V41" stroke="#ffffff" stroke-width="2" stroke-opacity=".70" stroke-linecap="round"/>
      <circle cx="23" cy="23" r="5.5" fill="#b7f4ff" opacity=".22" stroke="#fff" stroke-width=".8" stroke-opacity=".45"/>
      <circle cx="9" cy="9" r="1.8" fill="#fff" opacity=".46"/><circle cx="37" cy="37" r="1.8" fill="#fff" opacity=".36"/>
    </pattern>
    <pattern id="card_8_crackediceedge-checker" width="34" height="34" patternUnits="userSpaceOnUse">
      <rect width="17" height="17" fill="#8ceeff" opacity=".50"/><rect x="17" y="0" width="17" height="17" fill="#ffffff" opacity=".42"/>
      <rect x="0" y="17" width="17" height="17" fill="#b7f4ff" opacity=".44"/><rect x="17" y="17" width="17" height="17" fill="#ffffff" opacity=".28"/>
      <path d="M0 34 L34 0 M-8 26 L26 -8 M8 42 L42 8" stroke="#b7f4ff" stroke-width="1.0" opacity=".20"/>
      <path d="M0 0 H34 V34 H0 Z" fill="none" stroke="#fff" stroke-width=".7" stroke-opacity=".20"/>
    </pattern>
    <pattern id="card_8_crackediceedge-finiteTile" width="28" height="28" patternUnits="userSpaceOnUse">
      <rect width="28" height="28" fill="#010101"/>
      <path d="M0 28 L28 0 M-7 21 L21 -7 M7 35 L35 7" stroke="#242424" stroke-width="1.15" opacity=".72"/>
      <path d="M0 0 H28 V28 H0 Z" fill="none" stroke="#0f0f0f" stroke-width="1"/>
      <path d="M0 14 H28 M14 0 V28" stroke="#151515" stroke-width=".75" opacity=".58"/>
      <circle cx="14" cy="14" r="1.4" fill="#2f2f2f" opacity=".65"/>
    </pattern>
    <pattern id="card_8_crackediceedge-microLines" width="8" height="8" patternUnits="userSpaceOnUse" patternTransform="rotate(25)"><path d="M0 0 H8" stroke="#fff" stroke-width=".55" opacity=".12"/></pattern>
    <clipPath id="card_8_crackediceedge-borderClip" clipPathUnits="userSpaceOnUse"><path d="M0 0 H360 V78 H282 L256 52 H216 L202 68 H158 L144 52 H104 L78 78 H0 Z"/><path d="M0 0 H70 V78 L50 104 V266 L70 302 V504 H0 Z"/><path d="M360 0 H290 V78 L310 104 V266 L290 302 V504 H360 Z"/><path d="M0 302 H360 V504 H0 Z"/></clipPath>
    <clipPath id="card_8_crackediceedge-edgeClip" clipPathUnits="userSpaceOnUse"><rect x="0" y="0" width="360" height="22"/><rect x="0" y="482" width="360" height="22"/><rect x="0" y="0" width="22" height="504"/><rect x="338" y="0" width="22" height="504"/></clipPath>
    <mask id="card_8_crackediceedge-iceAvoidPortrait" maskUnits="userSpaceOnUse"><rect x="0" y="0" width="360" height="504" fill="#fff"/><ellipse cx="180" cy="166" rx="112" ry="143" fill="#000"/><path d="M70 256 C110 228 250 228 290 256 L318 346 C272 334 226 329 180 329 C134 329 88 334 42 346 Z" fill="#000"/></mask>
  </defs>
    <g filter="url(#card_8_crackediceedge-shadow)">
      <rect width="360" height="504" rx="26" fill="#f4fdff"/><rect width="360" height="504" rx="26" fill="url(#card_8_crackediceedge-field)" opacity=".65"/>
      <g clip-path="url(#card_8_crackediceedge-cardClip)"><ellipse cx="180" cy="178" rx="118" ry="132" fill="#ffffff" opacity="0.2"/><ellipse cx="180" cy="308" rx="132" ry="42" fill="#d9e1e7" opacity="0.2"/><path d="M38 326 C120 304 240 304 322 326" fill="none" stroke="#07111b" stroke-opacity="0.07" stroke-width="12"/><path d="M56 76 C110 52 250 52 304 76" fill="none" stroke="#07111b" stroke-opacity="0.055" stroke-width="8"/></g>
      
    <g clip-path="url(#card_8_crackediceedge-cardClip)" mask="url(#card_8_crackediceedge-iceAvoidPortrait)" filter="url(#card_8_crackediceedge-iceBump)"><rect width="360" height="504" fill="#eafdff" opacity=".22"/><polygon points="17.5,21.8 83.2,17.0 48.2,52.8" fill="#ffffff" opacity="0.35" stroke="#fff" stroke-opacity="0.58" stroke-width="0.9"/><polygon points="83.2,20.2 83.2,79.2 48.2,52.8" fill="#c7f4ff" opacity="0.17" stroke="#7ee7ff" stroke-opacity="0.36" stroke-width="0.8"/><polygon points="83.2,79.2 17.5,79.2 48.2,52.8" fill="#eafdff" opacity="0.26" stroke="#fff" stroke-opacity="0.44" stroke-width="0.8"/><polygon points="17.5,79.2 17.5,21.8 48.2,52.8" fill="#8feaff" opacity="0.17" stroke="#5edfff" stroke-opacity="0.3" stroke-width="0.8"/><polygon points="84.5,21.9 146.3,26.3 121.3,58.4" fill="#ffffff" opacity="0.37" stroke="#fff" stroke-opacity="0.58" stroke-width="0.9"/><polygon points="146.3,21.2 146.3,84.7 121.3,58.4" fill="#c7f4ff" opacity="0.17" stroke="#7ee7ff" stroke-opacity="0.36" stroke-width="0.8"/><polygon points="146.3,84.7 84.5,84.7 121.3,58.4" fill="#eafdff" opacity="0.27" stroke="#fff" stroke-opacity="0.44" stroke-width="0.8"/><polygon points="84.5,84.7 84.5,21.9 121.3,58.4" fill="#8feaff" opacity="0.14" stroke="#5edfff" stroke-opacity="0.3" stroke-width="0.8"/><polygon points="156.7,16.9 208.1,17.0 184.5,45.9" fill="#ffffff" opacity="0.32" stroke="#fff" stroke-opacity="0.58" stroke-width="0.9"/><polygon points="208.1,15.7 208.1,82.9 184.5,45.9" fill="#c7f4ff" opacity="0.19" stroke="#7ee7ff" stroke-opacity="0.36" stroke-width="0.8"/><polygon points="208.1,82.9 156.7,82.9 184.5,45.9" fill="#eafdff" opacity="0.19" stroke="#fff" stroke-opacity="0.44" stroke-width="0.8"/><polygon points="156.7,82.9 156.7,16.9 184.5,45.9" fill="#8feaff" opacity="0.24" stroke="#5edfff" stroke-opacity="0.3" stroke-width="0.8"/><polygon points="216.2,27.2 289.0,32.1 256.5,45.5" fill="#ffffff" opacity="0.35" stroke="#fff" stroke-opacity="0.58" stroke-width="0.9"/><polygon points="289.0,31.3 289.0,74.7 256.5,45.5" fill="#c7f4ff" opacity="0.13" stroke="#7ee7ff" stroke-opacity="0.36" stroke-width="0.8"/><polygon points="289.0,74.7 216.2,74.7 256.5,45.5" fill="#eafdff" opacity="0.20" stroke="#fff" stroke-opacity="0.44" stroke-width="0.8"/><polygon points="216.2,74.7 216.2,27.2 256.5,45.5" fill="#8feaff" opacity="0.22" stroke="#5edfff" stroke-opacity="0.3" stroke-width="0.8"/><polygon points="293.7,14.5 351.4,14.7 328.9,51.7" fill="#ffffff" opacity="0.37" stroke="#fff" stroke-opacity="0.58" stroke-width="0.9"/><polygon points="351.4,12.7 351.4,78.3 328.9,51.7" fill="#c7f4ff" opacity="0.19" stroke="#7ee7ff" stroke-opacity="0.36" stroke-width="0.8"/><polygon points="351.4,78.3 293.7,78.3 328.9,51.7" fill="#eafdff" opacity="0.18" stroke="#fff" stroke-opacity="0.44" stroke-width="0.8"/><polygon points="293.7,78.3 293.7,14.5 328.9,51.7" fill="#8feaff" opacity="0.14" stroke="#5edfff" stroke-opacity="0.3" stroke-width="0.8"/><polygon points="16.3,75.3 81.2,72.5 50.4,112.0" fill="#ffffff" opacity="0.34" stroke="#fff" stroke-opacity="0.58" stroke-width="0.9"/><polygon points="81.2,75.3 81.2,150.7 50.4,112.0" fill="#c7f4ff" opacity="0.22" stroke="#7ee7ff" stroke-opacity="0.36" stroke-width="0.8"/><polygon points="81.2,150.7 16.3,150.7 50.4,112.0" fill="#eafdff" opacity="0.23" stroke="#fff" stroke-opacity="0.44" stroke-width="0.8"/><polygon points="16.3,150.7 16.3,75.3 50.4,112.0" fill="#8feaff" opacity="0.22" stroke="#5edfff" stroke-opacity="0.3" stroke-width="0.8"/><polygon points="82.0,85.7 147.3,87.5 106.8,126.6" fill="#ffffff" opacity="0.23" stroke="#fff" stroke-opacity="0.58" stroke-width="0.9"/><polygon points="147.3,89.6 147.3,152.9 106.8,126.6" fill="#c7f4ff" opacity="0.18" stroke="#7ee7ff" stroke-opacity="0.36" stroke-width="0.8"/><polygon points="147.3,152.9 82.0,152.9 106.8,126.6" fill="#eafdff" opacity="0.29" stroke="#fff" stroke-opacity="0.44" stroke-width="0.8"/><polygon points="82.0,152.9 82.0,85.7 106.8,126.6" fill="#8feaff" opacity="0.19" stroke="#5edfff" stroke-opacity="0.3" stroke-width="0.8"/><polygon points="156.4,81.6 224.0,77.7 185.9,113.8" fill="#ffffff" opacity="0.29" stroke="#fff" stroke-opacity="0.58" stroke-width="0.9"/><polygon points="224.0,79.1 224.0,145.5 185.9,113.8" fill="#c7f4ff" opacity="0.19" stroke="#7ee7ff" stroke-opacity="0.36" stroke-width="0.8"/><polygon points="224.0,145.5 156.4,145.5 185.9,113.8" fill="#eafdff" opacity="0.25" stroke="#fff" stroke-opacity="0.44" stroke-width="0.8"/><polygon points="156.4,145.5 156.4,81.6 185.9,113.8" fill="#8feaff" opacity="0.21" stroke="#5edfff" stroke-opacity="0.3" stroke-width="0.8"/><polygon points="215.4,81.1 282.7,78.6 253.1,123.5" fill="#ffffff" opacity="0.29" stroke="#fff" stroke-opacity="0.58" stroke-width="0.9"/><polygon points="282.7,78.2 282.7,150.8 253.1,123.5" fill="#c7f4ff" opacity="0.19" stroke="#7ee7ff" stroke-opacity="0.36" stroke-width="0.8"/><polygon points="282.7,150.8 215.4,150.8 253.1,123.5" fill="#eafdff" opacity="0.30" stroke="#fff" stroke-opacity="0.44" stroke-width="0.8"/><polygon points="215.4,150.8 215.4,81.1 253.1,123.5" fill="#8feaff" opacity="0.13" stroke="#5edfff" stroke-opacity="0.3" stroke-width="0.8"/><polygon points="280.7,80.9 347.9,81.7 311.6,111.8" fill="#ffffff" opacity="0.23" stroke="#fff" stroke-opacity="0.58" stroke-width="0.9"/><polygon points="347.9,85.6 347.9,142.2 311.6,111.8" fill="#c7f4ff" opacity="0.16" stroke="#7ee7ff" stroke-opacity="0.36" stroke-width="0.8"/><polygon points="347.9,142.2 280.7,142.2 311.6,111.8" fill="#eafdff" opacity="0.30" stroke="#fff" stroke-opacity="0.44" stroke-width="0.8"/><polygon points="280.7,142.2 280.7,80.9 311.6,111.8" fill="#8feaff" opacity="0.23" stroke="#5edfff" stroke-opacity="0.3" stroke-width="0.8"/><polygon points="19.7,145.4 85.3,145.2 50.9,177.4" fill="#ffffff" opacity="0.32" stroke="#fff" stroke-opacity="0.58" stroke-width="0.9"/><polygon points="85.3,146.6 85.3,209.1 50.9,177.4" fill="#c7f4ff" opacity="0.18" stroke="#7ee7ff" stroke-opacity="0.36" stroke-width="0.8"/><polygon points="85.3,209.1 19.7,209.1 50.9,177.4" fill="#eafdff" opacity="0.21" stroke="#fff" stroke-opacity="0.44" stroke-width="0.8"/><polygon points="19.7,209.1 19.7,145.4 50.9,177.4" fill="#8feaff" opacity="0.12" stroke="#5edfff" stroke-opacity="0.3" stroke-width="0.8"/><polygon points="97.0,150.0 145.7,150.2 113.5,170.1" fill="#ffffff" opacity="0.29" stroke="#fff" stroke-opacity="0.58" stroke-width="0.9"/><polygon points="145.7,145.5 145.7,202.9 113.5,170.1" fill="#c7f4ff" opacity="0.20" stroke="#7ee7ff" stroke-opacity="0.36" stroke-width="0.8"/><polygon points="145.7,202.9 97.0,202.9 113.5,170.1" fill="#eafdff" opacity="0.26" stroke="#fff" stroke-opacity="0.44" stroke-width="0.8"/><polygon points="97.0,202.9 97.0,150.0 113.5,170.1" fill="#8feaff" opacity="0.23" stroke="#5edfff" stroke-opacity="0.3" stroke-width="0.8"/><polygon points="161.3,140.1 212.8,142.8 189.2,169.2" fill="#ffffff" opacity="0.18" stroke="#fff" stroke-opacity="0.58" stroke-width="0.9"/><polygon points="212.8,136.3 212.8,213.3 189.2,169.2" fill="#c7f4ff" opacity="0.30" stroke="#7ee7ff" stroke-opacity="0.36" stroke-width="0.8"/><polygon points="212.8,213.3 161.3,213.3 189.2,169.2" fill="#eafdff" opacity="0.14" stroke="#fff" stroke-opacity="0.44" stroke-width="0.8"/><polygon points="161.3,213.3 161.3,140.1 189.2,169.2" fill="#8feaff" opacity="0.22" stroke="#5edfff" stroke-opacity="0.3" stroke-width="0.8"/><polygon points="212.2,151.4 288.1,147.5 251.6,188.9" fill="#ffffff" opacity="0.27" stroke="#fff" stroke-opacity="0.58" stroke-width="0.9"/><polygon points="288.1,156.0 288.1,215.4 251.6,188.9" fill="#c7f4ff" opacity="0.12" stroke="#7ee7ff" stroke-opacity="0.36" stroke-width="0.8"/><polygon points="288.1,215.4 212.2,215.4 251.6,188.9" fill="#eafdff" opacity="0.25" stroke="#fff" stroke-opacity="0.44" stroke-width="0.8"/><polygon points="212.2,215.4 212.2,151.4 251.6,188.9" fill="#8feaff" opacity="0.24" stroke="#5edfff" stroke-opacity="0.3" stroke-width="0.8"/><polygon points="281.8,139.3 353.1,141.1 321.1,173.6" fill="#ffffff" opacity="0.20" stroke="#fff" stroke-opacity="0.58" stroke-width="0.9"/><polygon points="353.1,137.4 353.1,209.8 321.1,173.6" fill="#c7f4ff" opacity="0.16" stroke="#7ee7ff" stroke-opacity="0.36" stroke-width="0.8"/><polygon points="353.1,209.8 281.8,209.8 321.1,173.6" fill="#eafdff" opacity="0.31" stroke="#fff" stroke-opacity="0.44" stroke-width="0.8"/><polygon points="281.8,209.8 281.8,139.3 321.1,173.6" fill="#8feaff" opacity="0.19" stroke="#5edfff" stroke-opacity="0.3" stroke-width="0.8"/><polygon points="25.9,209.3 79.2,204.8 55.8,241.7" fill="#ffffff" opacity="0.28" stroke="#fff" stroke-opacity="0.58" stroke-width="0.9"/><polygon points="79.2,206.9 79.2,271.7 55.8,241.7" fill="#c7f4ff" opacity="0.25" stroke="#7ee7ff" stroke-opacity="0.36" stroke-width="0.8"/><polygon points="79.2,271.7 25.9,271.7 55.8,241.7" fill="#eafdff" opacity="0.18" stroke="#fff" stroke-opacity="0.44" stroke-width="0.8"/><polygon points="25.9,271.7 25.9,209.3 55.8,241.7" fill="#8feaff" opacity="0.21" stroke="#5edfff" stroke-opacity="0.3" stroke-width="0.8"/><polygon points="79.1,210.0 156.5,212.9 110.6,253.3" fill="#ffffff" opacity="0.29" stroke="#fff" stroke-opacity="0.58" stroke-width="0.9"/><polygon points="156.5,214.6 156.5,287.4 110.6,253.3" fill="#c7f4ff" opacity="0.23" stroke="#7ee7ff" stroke-opacity="0.36" stroke-width="0.8"/><polygon points="156.5,287.4 79.1,287.4 110.6,253.3" fill="#eafdff" opacity="0.20" stroke="#fff" stroke-opacity="0.44" stroke-width="0.8"/><polygon points="79.1,287.4 79.1,210.0 110.6,253.3" fill="#8feaff" opacity="0.15" stroke="#5edfff" stroke-opacity="0.3" stroke-width="0.8"/><polygon points="159.1,210.4 213.8,209.9 189.8,249.1" fill="#ffffff" opacity="0.17" stroke="#fff" stroke-opacity="0.58" stroke-width="0.9"/><polygon points="213.8,206.4 213.8,275.7 189.8,249.1" fill="#c7f4ff" opacity="0.12" stroke="#7ee7ff" stroke-opacity="0.36" stroke-width="0.8"/><polygon points="213.8,275.7 159.1,275.7 189.8,249.1" fill="#eafdff" opacity="0.14" stroke="#fff" stroke-opacity="0.44" stroke-width="0.8"/><polygon points="159.1,275.7 159.1,210.4 189.8,249.1" fill="#8feaff" opacity="0.11" stroke="#5edfff" stroke-opacity="0.3" stroke-width="0.8"/><polygon points="214.2,214.1 287.9,211.3 257.7,250.9" fill="#ffffff" opacity="0.25" stroke="#fff" stroke-opacity="0.58" stroke-width="0.9"/><polygon points="287.9,209.9 287.9,272.9 257.7,250.9" fill="#c7f4ff" opacity="0.14" stroke="#7ee7ff" stroke-opacity="0.36" stroke-width="0.8"/><polygon points="287.9,272.9 214.2,272.9 257.7,250.9" fill="#eafdff" opacity="0.15" stroke="#fff" stroke-opacity="0.44" stroke-width="0.8"/><polygon points="214.2,272.9 214.2,214.1 257.7,250.9" fill="#8feaff" opacity="0.10" stroke="#5edfff" stroke-opacity="0.3" stroke-width="0.8"/><polygon points="289.4,215.6 346.3,216.9 316.9,249.3" fill="#ffffff" opacity="0.36" stroke="#fff" stroke-opacity="0.58" stroke-width="0.9"/><polygon points="346.3,214.8 346.3,280.5 316.9,249.3" fill="#c7f4ff" opacity="0.15" stroke="#7ee7ff" stroke-opacity="0.36" stroke-width="0.8"/><polygon points="346.3,280.5 289.4,280.5 316.9,249.3" fill="#eafdff" opacity="0.23" stroke="#fff" stroke-opacity="0.44" stroke-width="0.8"/><polygon points="289.4,280.5 289.4,215.6 316.9,249.3" fill="#8feaff" opacity="0.16" stroke="#5edfff" stroke-opacity="0.3" stroke-width="0.8"/><polygon points="14.9,279.9 81.6,276.5 51.6,313.4" fill="#ffffff" opacity="0.31" stroke="#fff" stroke-opacity="0.58" stroke-width="0.9"/><polygon points="81.6,281.1 81.6,345.9 51.6,313.4" fill="#c7f4ff" opacity="0.16" stroke="#7ee7ff" stroke-opacity="0.36" stroke-width="0.8"/><polygon points="81.6,345.9 14.9,345.9 51.6,313.4" fill="#eafdff" opacity="0.15" stroke="#fff" stroke-opacity="0.44" stroke-width="0.8"/><polygon points="14.9,345.9 14.9,279.9 51.6,313.4" fill="#8feaff" opacity="0.18" stroke="#5edfff" stroke-opacity="0.3" stroke-width="0.8"/><polygon points="92.7,275.8 150.4,278.0 117.2,307.4" fill="#ffffff" opacity="0.29" stroke="#fff" stroke-opacity="0.58" stroke-width="0.9"/><polygon points="150.4,277.1 150.4,343.5 117.2,307.4" fill="#c7f4ff" opacity="0.19" stroke="#7ee7ff" stroke-opacity="0.36" stroke-width="0.8"/><polygon points="150.4,343.5 92.7,343.5 117.2,307.4" fill="#eafdff" opacity="0.30" stroke="#fff" stroke-opacity="0.44" stroke-width="0.8"/><polygon points="92.7,343.5 92.7,275.8 117.2,307.4" fill="#8feaff" opacity="0.20" stroke="#5edfff" stroke-opacity="0.3" stroke-width="0.8"/><polygon points="155.2,288.5 216.4,284.4 183.3,324.5" fill="#ffffff" opacity="0.23" stroke="#fff" stroke-opacity="0.58" stroke-width="0.9"/><polygon points="216.4,290.0 216.4,357.1 183.3,324.5" fill="#c7f4ff" opacity="0.26" stroke="#7ee7ff" stroke-opacity="0.36" stroke-width="0.8"/><polygon points="216.4,357.1 155.2,357.1 183.3,324.5" fill="#eafdff" opacity="0.19" stroke="#fff" stroke-opacity="0.44" stroke-width="0.8"/><polygon points="155.2,357.1 155.2,288.5 183.3,324.5" fill="#8feaff" opacity="0.21" stroke="#5edfff" stroke-opacity="0.3" stroke-width="0.8"/><polygon points="210.8,271.7 279.8,267.4 241.9,312.9" fill="#ffffff" opacity="0.25" stroke="#fff" stroke-opacity="0.58" stroke-width="0.9"/><polygon points="279.8,275.0 279.8,357.8 241.9,312.9" fill="#c7f4ff" opacity="0.18" stroke="#7ee7ff" stroke-opacity="0.36" stroke-width="0.8"/><polygon points="279.8,357.8 210.8,357.8 241.9,312.9" fill="#eafdff" opacity="0.14" stroke="#fff" stroke-opacity="0.44" stroke-width="0.8"/><polygon points="210.8,357.8 210.8,271.7 241.9,312.9" fill="#8feaff" opacity="0.15" stroke="#5edfff" stroke-opacity="0.3" stroke-width="0.8"/><polygon points="281.4,279.5 342.5,282.5 304.1,315.7" fill="#ffffff" opacity="0.28" stroke="#fff" stroke-opacity="0.58" stroke-width="0.9"/><polygon points="342.5,276.3 342.5,343.7 304.1,315.7" fill="#c7f4ff" opacity="0.13" stroke="#7ee7ff" stroke-opacity="0.36" stroke-width="0.8"/><polygon points="342.5,343.7 281.4,343.7 304.1,315.7" fill="#eafdff" opacity="0.23" stroke="#fff" stroke-opacity="0.44" stroke-width="0.8"/><polygon points="281.4,343.7 281.4,279.5 304.1,315.7" fill="#8feaff" opacity="0.10" stroke="#5edfff" stroke-opacity="0.3" stroke-width="0.8"/><polygon points="15.7,352.4 91.2,351.8 50.9,384.6" fill="#ffffff" opacity="0.22" stroke="#fff" stroke-opacity="0.58" stroke-width="0.9"/><polygon points="91.2,354.1 91.2,432.3 50.9,384.6" fill="#c7f4ff" opacity="0.14" stroke="#7ee7ff" stroke-opacity="0.36" stroke-width="0.8"/><polygon points="91.2,432.3 15.7,432.3 50.9,384.6" fill="#eafdff" opacity="0.19" stroke="#fff" stroke-opacity="0.44" stroke-width="0.8"/><polygon points="15.7,432.3 15.7,352.4 50.9,384.6" fill="#8feaff" opacity="0.13" stroke="#5edfff" stroke-opacity="0.3" stroke-width="0.8"/><polygon points="84.1,345.7 159.0,343.9 118.1,396.0" fill="#ffffff" opacity="0.20" stroke="#fff" stroke-opacity="0.58" stroke-width="0.9"/><polygon points="159.0,345.6 159.0,430.9 118.1,396.0" fill="#c7f4ff" opacity="0.26" stroke="#7ee7ff" stroke-opacity="0.36" stroke-width="0.8"/><polygon points="159.0,430.9 84.1,430.9 118.1,396.0" fill="#eafdff" opacity="0.27" stroke="#fff" stroke-opacity="0.44" stroke-width="0.8"/><polygon points="84.1,430.9 84.1,345.7 118.1,396.0" fill="#8feaff" opacity="0.14" stroke="#5edfff" stroke-opacity="0.3" stroke-width="0.8"/><polygon points="149.4,355.1 226.9,350.8 190.8,397.8" fill="#ffffff" opacity="0.27" stroke="#fff" stroke-opacity="0.58" stroke-width="0.9"/><polygon points="226.9,357.2 226.9,437.1 190.8,397.8" fill="#c7f4ff" opacity="0.24" stroke="#7ee7ff" stroke-opacity="0.36" stroke-width="0.8"/><polygon points="226.9,437.1 149.4,437.1 190.8,397.8" fill="#eafdff" opacity="0.26" stroke="#fff" stroke-opacity="0.44" stroke-width="0.8"/><polygon points="149.4,437.1 149.4,355.1 190.8,397.8" fill="#8feaff" opacity="0.11" stroke="#5edfff" stroke-opacity="0.3" stroke-width="0.8"/><polygon points="216.8,354.4 293.8,355.1 254.7,393.0" fill="#ffffff" opacity="0.30" stroke="#fff" stroke-opacity="0.58" stroke-width="0.9"/><polygon points="293.8,349.9 293.8,421.5 254.7,393.0" fill="#c7f4ff" opacity="0.16" stroke="#7ee7ff" stroke-opacity="0.36" stroke-width="0.8"/><polygon points="293.8,421.5 216.8,421.5 254.7,393.0" fill="#eafdff" opacity="0.16" stroke="#fff" stroke-opacity="0.44" stroke-width="0.8"/><polygon points="216.8,421.5 216.8,354.4 254.7,393.0" fill="#8feaff" opacity="0.14" stroke="#5edfff" stroke-opacity="0.3" stroke-width="0.8"/><polygon points="290.9,357.0 350.6,356.9 318.0,393.2" fill="#ffffff" opacity="0.20" stroke="#fff" stroke-opacity="0.58" stroke-width="0.9"/><polygon points="350.6,355.6 350.6,436.4 318.0,393.2" fill="#c7f4ff" opacity="0.20" stroke="#7ee7ff" stroke-opacity="0.36" stroke-width="0.8"/><polygon points="350.6,436.4 290.9,436.4 318.0,393.2" fill="#eafdff" opacity="0.27" stroke="#fff" stroke-opacity="0.44" stroke-width="0.8"/><polygon points="290.9,436.4 290.9,357.0 318.0,393.2" fill="#8feaff" opacity="0.17" stroke="#5edfff" stroke-opacity="0.3" stroke-width="0.8"/><polygon points="30.4,426.7 83.4,430.5 54.1,461.6" fill="#ffffff" opacity="0.18" stroke="#fff" stroke-opacity="0.58" stroke-width="0.9"/><polygon points="83.4,421.8 83.4,499.7 54.1,461.6" fill="#c7f4ff" opacity="0.24" stroke="#7ee7ff" stroke-opacity="0.36" stroke-width="0.8"/><polygon points="83.4,499.7 30.4,499.7 54.1,461.6" fill="#eafdff" opacity="0.21" stroke="#fff" stroke-opacity="0.44" stroke-width="0.8"/><polygon points="30.4,499.7 30.4,426.7 54.1,461.6" fill="#8feaff" opacity="0.12" stroke="#5edfff" stroke-opacity="0.3" stroke-width="0.8"/><polygon points="88.9,431.4 152.7,428.2 126.1,471.1" fill="#ffffff" opacity="0.33" stroke="#fff" stroke-opacity="0.58" stroke-width="0.9"/><polygon points="152.7,430.5 152.7,498.2 126.1,471.1" fill="#c7f4ff" opacity="0.25" stroke="#7ee7ff" stroke-opacity="0.36" stroke-width="0.8"/><polygon points="152.7,498.2 88.9,498.2 126.1,471.1" fill="#eafdff" opacity="0.26" stroke="#fff" stroke-opacity="0.44" stroke-width="0.8"/><polygon points="88.9,498.2 88.9,431.4 126.1,471.1" fill="#8feaff" opacity="0.11" stroke="#5edfff" stroke-opacity="0.3" stroke-width="0.8"/><polygon points="164.0,432.5 214.6,430.4 182.9,467.6" fill="#ffffff" opacity="0.38" stroke="#fff" stroke-opacity="0.58" stroke-width="0.9"/><polygon points="214.6,429.7 214.6,497.4 182.9,467.6" fill="#c7f4ff" opacity="0.20" stroke="#7ee7ff" stroke-opacity="0.36" stroke-width="0.8"/><polygon points="214.6,497.4 164.0,497.4 182.9,467.6" fill="#eafdff" opacity="0.26" stroke="#fff" stroke-opacity="0.44" stroke-width="0.8"/><polygon points="164.0,497.4 164.0,432.5 182.9,467.6" fill="#8feaff" opacity="0.11" stroke="#5edfff" stroke-opacity="0.3" stroke-width="0.8"/><polygon points="220.5,436.3 278.1,431.5 241.4,469.9" fill="#ffffff" opacity="0.34" stroke="#fff" stroke-opacity="0.58" stroke-width="0.9"/><polygon points="278.1,432.0 278.1,489.8 241.4,469.9" fill="#c7f4ff" opacity="0.12" stroke="#7ee7ff" stroke-opacity="0.36" stroke-width="0.8"/><polygon points="278.1,489.8 220.5,489.8 241.4,469.9" fill="#eafdff" opacity="0.29" stroke="#fff" stroke-opacity="0.44" stroke-width="0.8"/><polygon points="220.5,489.8 220.5,436.3 241.4,469.9" fill="#8feaff" opacity="0.13" stroke="#5edfff" stroke-opacity="0.3" stroke-width="0.8"/><polygon points="282.2,428.6 357.9,430.3 325.3,468.7" fill="#ffffff" opacity="0.31" stroke="#fff" stroke-opacity="0.58" stroke-width="0.9"/><polygon points="357.9,431.7 357.9,505.5 325.3,468.7" fill="#c7f4ff" opacity="0.15" stroke="#7ee7ff" stroke-opacity="0.36" stroke-width="0.8"/><polygon points="357.9,505.5 282.2,505.5 325.3,468.7" fill="#eafdff" opacity="0.26" stroke="#fff" stroke-opacity="0.44" stroke-width="0.8"/><polygon points="282.2,505.5 282.2,428.6 325.3,468.7" fill="#8feaff" opacity="0.13" stroke="#5edfff" stroke-opacity="0.3" stroke-width="0.8"/><path d="M259.7 402.2 L238.3 404.1" stroke="#ffffff" stroke-width="1.23" stroke-opacity="0.48"/><path d="M227.3 295.7 L208.1 258.4" stroke="#ffffff" stroke-width="1.48" stroke-opacity="0.66"/><path d="M19.9 189.8 L0.8 186.8" stroke="#ffffff" stroke-width="2.34" stroke-opacity="0.45"/><path d="M227.7 196.4 L257.9 203.6" stroke="#ffffff" stroke-width="2.25" stroke-opacity="0.56"/><path d="M13.4 347.6 L56.0 346.6" stroke="#ffffff" stroke-width="1.04" stroke-opacity="0.58"/><path d="M153.4 268.9 L130.7 235.4" stroke="#ffffff" stroke-width="1.63" stroke-opacity="0.50"/><path d="M295.8 204.3 L264.1 235.4" stroke="#ffffff" stroke-width="1.36" stroke-opacity="0.41"/><path d="M137.8 368.4 L106.6 369.1" stroke="#ffffff" stroke-width="1.72" stroke-opacity="0.52"/><path d="M82.1 370.6 L76.2 377.1" stroke="#ffffff" stroke-width="1.05" stroke-opacity="0.42"/><path d="M163.4 219.5 L151.5 252.3" stroke="#ffffff" stroke-width="1.43" stroke-opacity="0.57"/><path d="M110.3 356.7 L157.3 354.7" stroke="#ffffff" stroke-width="1.58" stroke-opacity="0.44"/><path d="M44.2 103.6 L46.3 116.7" stroke="#ffffff" stroke-width="1.58" stroke-opacity="0.57"/><path d="M177.8 239.6 L195.2 213.9" stroke="#ffffff" stroke-width="2.30" stroke-opacity="0.44"/><path d="M89.5 88.0 L51.3 88.1" stroke="#ffffff" stroke-width="1.74" stroke-opacity="0.23"/><path d="M285.9 50.3 L310.3 40.2" stroke="#ffffff" stroke-width="0.93" stroke-opacity="0.43"/><path d="M176.3 146.4 L147.8 120.5" stroke="#ffffff" stroke-width="1.65" stroke-opacity="0.41"/><path d="M137.7 458.9 L178.3 449.2" stroke="#ffffff" stroke-width="2.06" stroke-opacity="0.36"/><path d="M80.3 379.0 L87.7 413.5" stroke="#ffffff" stroke-width="1.17" stroke-opacity="0.28"/><path d="M216.9 59.0 L173.7 74.7" stroke="#ffffff" stroke-width="2.36" stroke-opacity="0.38"/><path d="M305.2 187.1 L345.4 164.6" stroke="#ffffff" stroke-width="1.02" stroke-opacity="0.54"/><path d="M34.5 50.3 L25.4 59.8" stroke="#ffffff" stroke-width="1.44" stroke-opacity="0.22"/><path d="M43.7 38.0 L49.4 22.5" stroke="#ffffff" stroke-width="0.98" stroke-opacity="0.63"/><path d="M298.5 207.0 L242.1 179.0" stroke="#ffffff" stroke-width="1.28" stroke-opacity="0.62"/><path d="M79.0 247.6 L132.0 265.9" stroke="#ffffff" stroke-width="1.54" stroke-opacity="0.37"/><path d="M54.8 422.3 L80.8 448.7" stroke="#ffffff" stroke-width="0.83" stroke-opacity="0.57"/><path d="M34.7 182.5 L13.5 201.6" stroke="#ffffff" stroke-width="1.70" stroke-opacity="0.42"/><path d="M94.6 340.3 L112.3 318.6" stroke="#ffffff" stroke-width="0.84" stroke-opacity="0.34"/><path d="M303.2 466.1 L318.1 439.8" stroke="#ffffff" stroke-width="1.50" stroke-opacity="0.64"/></g><g clip-path="url(#card_8_crackediceedge-cardClip)" mask="url(#card_8_crackediceedge-iceAvoidPortrait)"><path d="M-40 96 C80 52 118 96 190 64 C252 37 305 32 402 76" stroke="#ffffff" stroke-width="18" stroke-opacity=".16" fill="none"/><path d="M-30 382 C90 318 154 356 222 314 C290 272 331 288 396 250" stroke="#d6fbff" stroke-width="24" stroke-opacity=".16" fill="none"/></g>
    <g clip-path="url(#card_8_crackediceedge-cardClip)">
      <rect x="7" y="7" width="346" height="490" rx="24" fill="none" stroke="url(#card_8_crackediceedge-metalSweep)" stroke-width="2.7" stroke-opacity=".85"/>
      <rect x="16" y="16" width="328" height="472" rx="19" fill="none" stroke="#fff" stroke-width=".9" stroke-opacity=".40"/>
      <rect x="24" y="24" width="312" height="456" rx="16" fill="none" stroke="url(#card_8_crackediceedge-metalSweep)" stroke-width="1.2" stroke-opacity=".56"/>
      <path d="M21 89 L66 43 H132 L146 58 H214 L228 43 H294 L339 89" fill="none" stroke="url(#card_8_crackediceedge-metalSweep)" stroke-width="2" stroke-opacity=".72"/>
      <path d="M21 415 L66 462 H132 L146 447 H214 L228 462 H294 L339 415" fill="none" stroke="url(#card_8_crackediceedge-metalSweep)" stroke-width="2" stroke-opacity=".72"/>
      <path d="M43 100 L43 300 L72 332 M317 100 L317 300 L288 332" fill="none" stroke="url(#card_8_crackediceedge-metalSweep)" stroke-width="2.4" stroke-opacity=".46"/>
      <path d="M32 121 L64 92 V244 L44 286 L32 278 Z M328 121 L296 92 V244 L316 286 L328 278 Z" fill="#05080e" opacity=".20" stroke="url(#card_8_crackediceedge-metalSweep)" stroke-opacity=".34"/>
    </g>
      <g clip-path="url(#card_8_crackediceedge-cardClip)">
    <ellipse cx="180" cy="335" rx="102" ry="24" fill="#000" opacity=".23" filter="url(#card_8_crackediceedge-shadow)"/>
    <g transform="translate(23 44) scale(.35)" filter="url(#demoShadow)">
    <defs>
      <radialGradient id="demoSkin" cx="50%" cy="32%" r="58%"><stop offset="0" stop-color="#d99a68"/><stop offset=".52" stop-color="#b66e3f"/><stop offset="1" stop-color="#74401f"/></radialGradient>
      <linearGradient id="demoJersey" x1="290" y1="760" x2="625" y2="1060" gradientUnits="userSpaceOnUse"><stop stop-color="#10243c"/><stop offset="1" stop-color="#050910"/></linearGradient>
      <filter id="demoShadow" x="-30%" y="-30%" width="160%" height="160%"><feDropShadow dx="0" dy="22" stdDeviation="24" flood-color="#000" flood-opacity="0.34"/></filter>
    </defs>
    <path d="M188 1115c17-180 112-300 262-300s245 120 262 300H188Z" fill="url(#demoJersey)"/>
    <path d="M362 790c3 58 30 102 88 102s85-44 88-102H362Z" fill="#9d5b31"/>
    <path d="M292 904c55 75 111 110 158 110s103-35 158-110l34 211H258l34-211Z" fill="#e9edf4"/>
    <path d="M325 905c45 60 87 88 125 88s80-28 125-88l24 210H301l24-210Z" fill="url(#demoJersey)"/>
    <ellipse cx="246" cy="506" rx="58" ry="90" fill="#a46137"/>
    <ellipse cx="654" cy="506" rx="58" ry="90" fill="#a46137"/>
    <path d="M287 404c0-142 66-240 163-240s163 98 163 240v145c0 131-74 247-163 247S287 680 287 549V404Z" fill="url(#demoSkin)"/>
    <path d="M290 394c26-78 95-126 161-126 70 0 136 50 161 126-16-112-75-192-162-192-86 0-145 80-160 192Z" fill="#0b0d0f"/>
    <path d="M269 385c7-120 71-226 181-226s174 106 181 226c-54-41-87-78-181-78s-127 37-181 78Z" fill="#111316"/>
    <circle cx="311" cy="244" r="58" fill="#0d0f12"/><circle cx="375" cy="198" r="70" fill="#111316"/><circle cx="454" cy="185" r="82" fill="#0e1013"/><circle cx="535" cy="201" r="70" fill="#111316"/><circle cx="592" cy="254" r="55" fill="#0e1013"/>
    <ellipse cx="390" cy="514" rx="22" ry="15" fill="#171717" opacity=".84"/>
    <ellipse cx="515" cy="514" rx="22" ry="15" fill="#171717" opacity=".84"/>
    <path d="M455 520c-11 44-8 68 18 76" stroke="#7e4322" stroke-width="14" stroke-linecap="round" opacity=".7"/>
    <path d="M375 646c46 35 106 35 151 0" stroke="#31180d" stroke-width="18" stroke-linecap="round"/>
    <path d="M397 660c34 15 71 15 105 0" stroke="#f2d4c0" stroke-width="8" stroke-linecap="round" opacity=".95"/>
    <path d="M322 448c43-39 97-42 139-19" stroke="#0b0d0f" stroke-width="18" stroke-linecap="round"/>
    <path d="M451 428c43-22 96-19 138 20" stroke="#0b0d0f" stroke-width="18" stroke-linecap="round"/>
    <path d="M294 404c50-35 86-78 128-126 54 53 110 70 190 117-12-122-80-213-166-213-94 0-152 86-152 222Z" fill="#0c0e11" opacity=".96"/>
  </g>
    <path d="M0 300 C75 282 128 287 180 294 C231 301 282 286 360 304 V352 H0 Z" fill="#fff" opacity=".04"/>
  </g>
      
      <g><circle cx="43" cy="45" r="23" fill="#050912" stroke="url(#card_8_crackediceedge-borderFoil)" stroke-width="2"/><circle cx="43" cy="45" r="28" fill="none" stroke="#fff" stroke-opacity=".20"/><text x="43" y="51" text-anchor="middle" font-family="Inter,Arial,sans-serif" font-size="17" font-weight="900" fill="#fff">#23</text><polygon points="323.0,31.0 326.8,41.7 338.2,42.1 329.2,49.0 332.4,59.9 323.0,53.5 313.6,59.9 316.8,49.0 307.8,42.1 319.2,41.7" fill="url(#card_8_crackediceedge-goldSweep)" stroke="#fff" stroke-opacity=".4"/></g>
      <g>
    <path d="M41 318 H319 L307 341 H53 Z" fill="#142338" opacity=".96" stroke="url(#card_8_crackediceedge-borderFoil)" stroke-opacity=".50"/>
    <text x="180" y="334" text-anchor="middle" font-family="Inter,Arial,sans-serif" font-size="10.2" font-weight="900" letter-spacing="3.5" fill="#102038">NASHVILLE STARS</text>
    <path d="M37 344 H323 L311 399 H49 Z" fill="url(#card_8_crackediceedge-namePlate)" opacity=".96" stroke="url(#card_8_crackediceedge-borderFoil)" stroke-opacity=".58"/>
    <path d="M55 344 L82 399 M305 344 L278 399" stroke="url(#card_8_crackediceedge-borderFoil)" stroke-opacity=".25"/>
    <text x="180" y="384" text-anchor="middle" font-family="Impact,Arial Black,sans-serif" font-size="34" letter-spacing=".6" fill="#111923" stroke="#fff" stroke-opacity=".18" stroke-width="1">MARCUS REED</text>
  </g>
      <g><g transform="translate(36 418)"><path d="M0 0 H64 L58 54 H6 Z" fill="#08111c" opacity=".95" stroke="url(#card_8_crackediceedge-borderFoil)" stroke-opacity=".58"/><path d="M7 8 H57 M7 47 H57" stroke="#fff" stroke-opacity=".10"/><text x="32" y="24" text-anchor="middle" font-family="Inter,Arial,sans-serif" font-size="16" font-weight="900" fill="#f8fbff">21.4</text><text x="32" y="42" text-anchor="middle" font-family="Inter,Arial,sans-serif" font-size="9.5" font-weight="900" letter-spacing="1" fill="#dce5ef">PTS</text></g><g transform="translate(108 418)"><path d="M0 0 H64 L58 54 H6 Z" fill="#08111c" opacity=".95" stroke="url(#card_8_crackediceedge-borderFoil)" stroke-opacity=".58"/><path d="M7 8 H57 M7 47 H57" stroke="#fff" stroke-opacity=".10"/><text x="32" y="24" text-anchor="middle" font-family="Inter,Arial,sans-serif" font-size="16" font-weight="900" fill="#f8fbff">5.8</text><text x="32" y="42" text-anchor="middle" font-family="Inter,Arial,sans-serif" font-size="9.5" font-weight="900" letter-spacing="1" fill="#dce5ef">REB</text></g><g transform="translate(180 418)"><path d="M0 0 H64 L58 54 H6 Z" fill="#08111c" opacity=".95" stroke="url(#card_8_crackediceedge-borderFoil)" stroke-opacity=".58"/><path d="M7 8 H57 M7 47 H57" stroke="#fff" stroke-opacity=".10"/><text x="32" y="24" text-anchor="middle" font-family="Inter,Arial,sans-serif" font-size="16" font-weight="900" fill="#f8fbff">6.9</text><text x="32" y="42" text-anchor="middle" font-family="Inter,Arial,sans-serif" font-size="9.5" font-weight="900" letter-spacing="1" fill="#dce5ef">AST</text></g><g transform="translate(252 418)"><path d="M0 0 H64 L58 54 H6 Z" fill="#08111c" opacity=".95" stroke="url(#card_8_crackediceedge-borderFoil)" stroke-opacity=".58"/><path d="M7 8 H57 M7 47 H57" stroke="#fff" stroke-opacity=".10"/><text x="32" y="24" text-anchor="middle" font-family="Inter,Arial,sans-serif" font-size="16" font-weight="900" fill="#f8fbff">+4.1</text><text x="32" y="42" text-anchor="middle" font-family="Inter,Arial,sans-serif" font-size="9.5" font-weight="900" letter-spacing="1" fill="#dce5ef">VAR</text></g></g>
      <rect x="0" y="0" width="360" height="504" rx="26" fill="none" stroke="#fff" stroke-opacity=".24"/>
      <rect width="360" height="504" rx="26" filter="url(#card_8_crackediceedge-cardGrain)" opacity=".55"/>
    </g>
  </svg>